<mxfile host="app.diagrams.net" modified="2020-04-02T10:30:18.978Z" agent="5.0 (Windows)" etag="z8Psdtl9NuXK2WqI8hgh" version="12.9.6" type="github">
  <diagram id="C5RBs43oDa-KdzZeNtuy" name="Page-1">
    <mxGraphModel dx="866" dy="457" grid="1" gridSize="10" guides="1" tooltips="1" connect="1" arrows="1" fold="1" page="1" pageScale="1" pageWidth="827" pageHeight="1169" math="0" shadow="0">
      <root>
        <mxCell id="WIyWlLk6GJQsqaUBKTNV-0" />
        <mxCell id="WIyWlLk6GJQsqaUBKTNV-1" parent="WIyWlLk6GJQsqaUBKTNV-0" />
        <mxCell id="qi2p8pHKqPYSHHXsWVHH-40" value="" style="rounded=0;whiteSpace=wrap;html=1;fontSize=15;" parent="WIyWlLk6GJQsqaUBKTNV-1" vertex="1">
          <mxGeometry x="544" y="490" width="260" height="160" as="geometry" />
        </mxCell>
        <mxCell id="qi2p8pHKqPYSHHXsWVHH-5" value="&lt;div&gt;STATUS = 0&lt;/div&gt;" style="text;html=1;strokeColor=none;fillColor=none;align=center;verticalAlign=middle;whiteSpace=wrap;rounded=0;fontStyle=1" parent="WIyWlLk6GJQsqaUBKTNV-1" vertex="1">
          <mxGeometry x="164" y="250" width="70" height="20" as="geometry" />
        </mxCell>
        <mxCell id="qi2p8pHKqPYSHHXsWVHH-9" value="" style="endArrow=classic;html=1;fontSize=15;entryX=-0.025;entryY=0.885;entryDx=0;entryDy=0;entryPerimeter=0;exitX=1;exitY=0.5;exitDx=0;exitDy=0;" parent="WIyWlLk6GJQsqaUBKTNV-1" target="zkfFHV4jXpPFQw0GAbJ--1" edge="1">
          <mxGeometry width="50" height="50" relative="1" as="geometry">
            <mxPoint x="134" y="270" as="sourcePoint" />
            <mxPoint x="265" y="249" as="targetPoint" />
            <Array as="points">
              <mxPoint x="164" y="270" />
            </Array>
          </mxGeometry>
        </mxCell>
        <mxCell id="qi2p8pHKqPYSHHXsWVHH-13" value="STATUS&#xa;" style="text;align=left;verticalAlign=top;spacingLeft=4;spacingRight=4;overflow=hidden;rotatable=0;points=[[0,0.5],[1,0.5]];portConstraint=eastwest;rounded=0;shadow=0;html=0;" parent="WIyWlLk6GJQsqaUBKTNV-1" vertex="1">
          <mxGeometry x="264" y="350" width="160" height="26" as="geometry" />
        </mxCell>
        <mxCell id="qi2p8pHKqPYSHHXsWVHH-22" value="&lt;b&gt;Реестр чеков&lt;/b&gt;" style="shape=cylinder;whiteSpace=wrap;html=1;boundedLbl=1;backgroundOutline=1;fontSize=15;" parent="WIyWlLk6GJQsqaUBKTNV-1" vertex="1">
          <mxGeometry x="34" y="200" width="100" height="140" as="geometry" />
        </mxCell>
        <mxCell id="qi2p8pHKqPYSHHXsWVHH-23" value="&lt;div&gt;&lt;br&gt;&lt;/div&gt;&lt;div&gt;&lt;font size=&quot;1&quot;&gt;&lt;b style=&quot;font-size: 17px&quot;&gt;business_check.php&lt;/b&gt;&lt;/font&gt;&lt;/div&gt;&lt;div&gt;&lt;br&gt;&lt;/div&gt;&lt;div&gt;pofd_orangedata.list_checkOFD&lt;/div&gt;" style="rounded=1;whiteSpace=wrap;html=1;fontSize=15;" parent="WIyWlLk6GJQsqaUBKTNV-1" vertex="1">
          <mxGeometry x="559" y="240" width="220" height="110" as="geometry" />
        </mxCell>
        <mxCell id="qi2p8pHKqPYSHHXsWVHH-29" value="&lt;div&gt;STATUS IN (0, 400)&lt;/div&gt;" style="text;html=1;strokeColor=none;fillColor=none;align=center;verticalAlign=middle;whiteSpace=wrap;rounded=0;fontStyle=1" parent="WIyWlLk6GJQsqaUBKTNV-1" vertex="1">
          <mxGeometry x="424" y="285" width="140" height="20" as="geometry" />
        </mxCell>
        <mxCell id="qi2p8pHKqPYSHHXsWVHH-34" value="" style="endArrow=classic;html=1;fontSize=15;entryX=0.462;entryY=-0.031;entryDx=0;entryDy=0;entryPerimeter=0;" parent="WIyWlLk6GJQsqaUBKTNV-1" target="qi2p8pHKqPYSHHXsWVHH-40" edge="1">
          <mxGeometry width="50" height="50" relative="1" as="geometry">
            <mxPoint x="664" y="353" as="sourcePoint" />
            <mxPoint x="665" y="430" as="targetPoint" />
          </mxGeometry>
        </mxCell>
        <mxCell id="qi2p8pHKqPYSHHXsWVHH-36" value="&lt;div&gt;CHECK_ID&lt;/div&gt;" style="text;html=1;strokeColor=none;fillColor=none;align=center;verticalAlign=middle;whiteSpace=wrap;rounded=0;fontStyle=1" parent="WIyWlLk6GJQsqaUBKTNV-1" vertex="1">
          <mxGeometry x="614" y="390" width="30" height="70" as="geometry" />
        </mxCell>
        <mxCell id="qi2p8pHKqPYSHHXsWVHH-35" value="&lt;div&gt;&lt;br&gt;&lt;/div&gt;&lt;div&gt;&lt;font size=&quot;1&quot;&gt;&lt;b style=&quot;font-size: 17px&quot;&gt;business_check.php&lt;/b&gt;&lt;/font&gt;&lt;/div&gt;&lt;div&gt;&lt;br&gt;&lt;/div&gt;&lt;div&gt;pofd_orangedata.list_goods&lt;/div&gt;&lt;div&gt;({checkid})&lt;br&gt;&lt;/div&gt;" style="rounded=1;whiteSpace=wrap;html=1;fontSize=15;" parent="WIyWlLk6GJQsqaUBKTNV-1" vertex="1">
          <mxGeometry x="569" y="520" width="210" height="110" as="geometry" />
        </mxCell>
        <mxCell id="qi2p8pHKqPYSHHXsWVHH-38" value="&lt;div&gt;&lt;b&gt;Создание json чека&lt;/b&gt;&lt;/div&gt;&lt;div&gt;&lt;b&gt;&lt;br&gt;&lt;/b&gt;&lt;/div&gt;" style="text;html=1;strokeColor=none;fillColor=none;align=center;verticalAlign=middle;whiteSpace=wrap;rounded=0;fontSize=15;" parent="WIyWlLk6GJQsqaUBKTNV-1" vertex="1">
          <mxGeometry x="589" y="510" width="170" as="geometry" />
        </mxCell>
        <mxCell id="qi2p8pHKqPYSHHXsWVHH-61" style="edgeStyle=orthogonalEdgeStyle;rounded=0;orthogonalLoop=1;jettySize=auto;html=1;exitX=0.5;exitY=0;exitDx=0;exitDy=0;fontSize=15;" parent="WIyWlLk6GJQsqaUBKTNV-1" source="qi2p8pHKqPYSHHXsWVHH-44" edge="1">
          <mxGeometry relative="1" as="geometry">
            <mxPoint x="664" y="650" as="targetPoint" />
          </mxGeometry>
        </mxCell>
        <mxCell id="zkfFHV4jXpPFQw0GAbJ--0" value="OFD_CHECK" style="swimlane;fontStyle=1;align=center;verticalAlign=top;childLayout=stackLayout;horizontal=1;startSize=26;horizontalStack=0;resizeParent=1;resizeLast=0;collapsible=1;marginBottom=0;rounded=0;shadow=0;strokeWidth=1;" parent="WIyWlLk6GJQsqaUBKTNV-1" vertex="1">
          <mxGeometry x="264" y="220" width="160" height="170" as="geometry">
            <mxRectangle x="230" y="140" width="160" height="26" as="alternateBounds" />
          </mxGeometry>
        </mxCell>
        <mxCell id="zkfFHV4jXpPFQw0GAbJ--1" value="ID" style="text;align=left;verticalAlign=top;spacingLeft=4;spacingRight=4;overflow=hidden;rotatable=0;points=[[0,0.5],[1,0.5]];portConstraint=eastwest;" parent="zkfFHV4jXpPFQw0GAbJ--0" vertex="1">
          <mxGeometry y="26" width="160" height="26" as="geometry" />
        </mxCell>
        <mxCell id="zkfFHV4jXpPFQw0GAbJ--2" value="DATE_IN" style="text;align=left;verticalAlign=top;spacingLeft=4;spacingRight=4;overflow=hidden;rotatable=0;points=[[0,0.5],[1,0.5]];portConstraint=eastwest;rounded=0;shadow=0;html=0;" parent="zkfFHV4jXpPFQw0GAbJ--0" vertex="1">
          <mxGeometry y="52" width="160" height="26" as="geometry" />
        </mxCell>
        <mxCell id="zkfFHV4jXpPFQw0GAbJ--3" value="COMMENTS" style="text;align=left;verticalAlign=top;spacingLeft=4;spacingRight=4;overflow=hidden;rotatable=0;points=[[0,0.5],[1,0.5]];portConstraint=eastwest;rounded=0;shadow=0;html=0;" parent="zkfFHV4jXpPFQw0GAbJ--0" vertex="1">
          <mxGeometry y="78" width="160" height="26" as="geometry" />
        </mxCell>
        <mxCell id="qi2p8pHKqPYSHHXsWVHH-12" value="COMMAND" style="text;align=left;verticalAlign=top;spacingLeft=4;spacingRight=4;overflow=hidden;rotatable=0;points=[[0,0.5],[1,0.5]];portConstraint=eastwest;rounded=0;shadow=0;html=0;" parent="zkfFHV4jXpPFQw0GAbJ--0" vertex="1">
          <mxGeometry y="104" width="160" height="26" as="geometry" />
        </mxCell>
        <mxCell id="qi2p8pHKqPYSHHXsWVHH-44" value="&lt;div style=&quot;font-size: 18px&quot;&gt;&lt;b&gt;ЛК business.ru&lt;/b&gt;&lt;/div&gt;" style="rounded=1;whiteSpace=wrap;html=1;fontSize=15;" parent="WIyWlLk6GJQsqaUBKTNV-1" vertex="1">
          <mxGeometry x="564" y="800" width="200" height="100" as="geometry" />
        </mxCell>
        <mxCell id="qi2p8pHKqPYSHHXsWVHH-45" value="" style="endArrow=classic;html=1;fontSize=15;" parent="WIyWlLk6GJQsqaUBKTNV-1" edge="1">
          <mxGeometry width="50" height="50" relative="1" as="geometry">
            <mxPoint x="704" y="650" as="sourcePoint" />
            <mxPoint x="705" y="800" as="targetPoint" />
            <Array as="points" />
          </mxGeometry>
        </mxCell>
        <mxCell id="qi2p8pHKqPYSHHXsWVHH-46" value="&lt;div style=&quot;font-size: 16px&quot;&gt;&lt;font style=&quot;font-size: 16px&quot;&gt;Send &lt;/font&gt;&lt;br&gt;&lt;font style=&quot;font-size: 16px&quot;&gt;cheque&lt;/font&gt;&lt;/div&gt;" style="text;html=1;strokeColor=none;fillColor=none;align=center;verticalAlign=middle;whiteSpace=wrap;rounded=0;fontStyle=1" parent="WIyWlLk6GJQsqaUBKTNV-1" vertex="1">
          <mxGeometry x="714" y="680" width="50" height="80" as="geometry" />
        </mxCell>
        <mxCell id="qi2p8pHKqPYSHHXsWVHH-47" value="&lt;div style=&quot;font-size: 18px&quot;&gt;&lt;font style=&quot;font-size: 18px&quot;&gt;&lt;b&gt;ОФД&lt;/b&gt;&lt;/font&gt;&lt;/div&gt;" style="ellipse;whiteSpace=wrap;html=1;fontSize=15;" parent="WIyWlLk6GJQsqaUBKTNV-1" vertex="1">
          <mxGeometry x="284" y="780" width="150" height="110" as="geometry" />
        </mxCell>
        <mxCell id="qi2p8pHKqPYSHHXsWVHH-48" value="" style="endArrow=classic;html=1;fontSize=15;exitX=0;exitY=0.2;exitDx=0;exitDy=0;exitPerimeter=0;" parent="WIyWlLk6GJQsqaUBKTNV-1" source="qi2p8pHKqPYSHHXsWVHH-44" edge="1">
          <mxGeometry width="50" height="50" relative="1" as="geometry">
            <mxPoint x="374" y="760" as="sourcePoint" />
            <mxPoint x="434" y="820" as="targetPoint" />
            <Array as="points">
              <mxPoint x="434" y="820" />
            </Array>
          </mxGeometry>
        </mxCell>
        <mxCell id="qi2p8pHKqPYSHHXsWVHH-54" value="cheque" style="text;html=1;strokeColor=none;fillColor=none;align=center;verticalAlign=middle;whiteSpace=wrap;rounded=0;fontSize=15;fontStyle=1" parent="WIyWlLk6GJQsqaUBKTNV-1" vertex="1">
          <mxGeometry x="465" y="790" width="69" height="30" as="geometry" />
        </mxCell>
        <mxCell id="qi2p8pHKqPYSHHXsWVHH-55" value="" style="endArrow=classic;html=1;fontSize=15;exitX=0.78;exitY=0.918;exitDx=0;exitDy=0;exitPerimeter=0;" parent="WIyWlLk6GJQsqaUBKTNV-1" source="qi2p8pHKqPYSHHXsWVHH-47" edge="1">
          <mxGeometry width="50" height="50" relative="1" as="geometry">
            <mxPoint x="444" y="880" as="sourcePoint" />
            <mxPoint x="564" y="883" as="targetPoint" />
          </mxGeometry>
        </mxCell>
        <mxCell id="qi2p8pHKqPYSHHXsWVHH-56" value="&lt;div&gt;STATUS&lt;/div&gt;" style="text;html=1;strokeColor=none;fillColor=none;align=center;verticalAlign=middle;whiteSpace=wrap;rounded=0;fontSize=15;fontStyle=1" parent="WIyWlLk6GJQsqaUBKTNV-1" vertex="1">
          <mxGeometry x="474" y="860" width="40" height="20" as="geometry" />
        </mxCell>
        <mxCell id="qi2p8pHKqPYSHHXsWVHH-62" value="&lt;div style=&quot;font-size: 17px;&quot;&gt;command_id&lt;/div&gt;&lt;div style=&quot;font-size: 17px;&quot;&gt;&lt;br style=&quot;font-size: 17px;&quot;&gt;&lt;/div&gt;" style="text;html=1;strokeColor=none;fillColor=none;align=center;verticalAlign=middle;whiteSpace=wrap;rounded=0;fontStyle=1;fontSize=17;" parent="WIyWlLk6GJQsqaUBKTNV-1" vertex="1">
          <mxGeometry x="569" y="700" width="50" height="70" as="geometry" />
        </mxCell>
        <mxCell id="qi2p8pHKqPYSHHXsWVHH-67" value="&lt;div&gt;&lt;br&gt;&lt;/div&gt;&lt;div&gt;&lt;font size=&quot;1&quot;&gt;&lt;b style=&quot;font-size: 17px&quot;&gt;business_check.php&lt;/b&gt;&lt;/font&gt;&lt;/div&gt;&lt;div&gt;&lt;br&gt;&lt;/div&gt;&lt;div&gt;pofd_orangedata.falter_checkOFD&lt;br&gt;&lt;/div&gt;" style="rounded=1;whiteSpace=wrap;html=1;fontSize=15;" parent="WIyWlLk6GJQsqaUBKTNV-1" vertex="1">
          <mxGeometry x="24" y="600" width="240" height="110" as="geometry" />
        </mxCell>
        <mxCell id="qi2p8pHKqPYSHHXsWVHH-68" value="" style="endArrow=classic;html=1;fontSize=17;exitX=0.001;exitY=0.865;exitDx=0;exitDy=0;exitPerimeter=0;" parent="WIyWlLk6GJQsqaUBKTNV-1" source="qi2p8pHKqPYSHHXsWVHH-40" edge="1">
          <mxGeometry width="50" height="50" relative="1" as="geometry">
            <mxPoint x="535" y="630" as="sourcePoint" />
            <mxPoint x="265" y="628" as="targetPoint" />
          </mxGeometry>
        </mxCell>
        <mxCell id="qi2p8pHKqPYSHHXsWVHH-69" value="&lt;div style=&quot;font-size: 17px;&quot;&gt;command_id&lt;/div&gt;&lt;div style=&quot;font-size: 17px;&quot;&gt;&lt;br style=&quot;font-size: 17px;&quot;&gt;&lt;/div&gt;" style="text;html=1;strokeColor=none;fillColor=none;align=center;verticalAlign=middle;whiteSpace=wrap;rounded=0;fontStyle=1;fontSize=17;" parent="WIyWlLk6GJQsqaUBKTNV-1" vertex="1">
          <mxGeometry x="354" y="655" width="110" as="geometry" />
        </mxCell>
        <mxCell id="qi2p8pHKqPYSHHXsWVHH-71" value="" style="endArrow=classic;html=1;fontSize=17;entryX=0.5;entryY=1;entryDx=0;entryDy=0;exitX=0.067;exitY=0;exitDx=0;exitDy=0;exitPerimeter=0;" parent="WIyWlLk6GJQsqaUBKTNV-1" source="qi2p8pHKqPYSHHXsWVHH-67" target="zkfFHV4jXpPFQw0GAbJ--0" edge="1">
          <mxGeometry width="50" height="50" relative="1" as="geometry">
            <mxPoint x="40" y="595" as="sourcePoint" />
            <mxPoint x="355" y="430" as="targetPoint" />
            <Array as="points">
              <mxPoint x="40" y="430" />
              <mxPoint x="344" y="430" />
            </Array>
          </mxGeometry>
        </mxCell>
        <mxCell id="qi2p8pHKqPYSHHXsWVHH-81" value="&lt;div style=&quot;font-size: 14px&quot;&gt;&lt;span&gt;&lt;font style=&quot;font-size: 14px&quot;&gt;STATUS=200 &amp;amp; COMMENTS=&quot;Чек отправлен&quot; &lt;/font&gt;&lt;/span&gt;&lt;br style=&quot;font-size: 14px&quot;&gt;&lt;span&gt;&lt;/span&gt;&lt;div style=&quot;font-size: 14px&quot; align=&quot;center&quot;&gt;&lt;span&gt;&lt;font style=&quot;font-size: 14px&quot;&gt;OR&lt;/font&gt;&lt;/span&gt;&lt;/div&gt;&lt;div style=&quot;font-size: 14px&quot;&gt;&lt;span&gt;&lt;font style=&quot;font-size: 14px&quot;&gt;STATUS=400 &amp;amp; COMMENTS=&quot;Ошибка в отправке чека&quot;&lt;br style=&quot;font-size: 14px&quot;&gt;&lt;/font&gt;&lt;/span&gt;&lt;/div&gt;&lt;/div&gt;&lt;div style=&quot;font-size: 14px&quot;&gt;&lt;span&gt;&lt;/span&gt;&lt;/div&gt;" style="text;html=1;fontSize=14;align=left;labelBackgroundColor=#E6E6E6;labelBorderColor=#000000;" parent="WIyWlLk6GJQsqaUBKTNV-1" vertex="1">
          <mxGeometry x="44" y="450" width="390" height="80" as="geometry" />
        </mxCell>
        <mxCell id="qi2p8pHKqPYSHHXsWVHH-83" value="&lt;div style=&quot;font-size: 20px;&quot;&gt;Отправка чека&lt;/div&gt;" style="text;html=1;strokeColor=none;fillColor=none;align=center;verticalAlign=middle;whiteSpace=wrap;rounded=0;labelBackgroundColor=#E6E6E6;fontSize=20;fontStyle=1" parent="WIyWlLk6GJQsqaUBKTNV-1" vertex="1">
          <mxGeometry x="24" y="70" width="181" height="20" as="geometry" />
        </mxCell>
        <mxCell id="6n50glum_qSikHBpF3vc-1" value="" style="endArrow=classic;html=1;entryX=1;entryY=0.885;entryDx=0;entryDy=0;entryPerimeter=0;" parent="WIyWlLk6GJQsqaUBKTNV-1" target="zkfFHV4jXpPFQw0GAbJ--3" edge="1">
          <mxGeometry width="50" height="50" relative="1" as="geometry">
            <mxPoint x="560" y="321" as="sourcePoint" />
            <mxPoint x="430" y="320" as="targetPoint" />
          </mxGeometry>
        </mxCell>
      </root>
    </mxGraphModel>
  </diagram>
</mxfile>
